<svg width="180" height="180" viewBox="0 0 180 180" fill="none" xmlns="http://www.w3.org/2000/svg">
<g clip-path="url(#clip0_515_400)">
<path d="M0 90C0 24.5455 24.5455 0 90 0C155.455 0 180 24.5455 180 90C180 155.455 155.455 180 90 180C24.5455 180 0 155.455 0 90Z" fill="url(#paint0_linear_515_400)"/>
<path d="M39.8361 56.5574V75.7377C39.8361 68.459 44.5082 63.6885 49.918 63.6885L94.1803 63.4426L93.0663 62.5827C92.6537 62.2642 92.2583 61.9206 91.931 61.5148C90.5272 59.7742 89.7541 57.5993 89.7541 55.3476C89.7541 50.5834 85.892 46.7213 81.1278 46.7213H49.6721C44.2398 46.7213 39.8361 51.1251 39.8361 56.5574Z" fill="#FFDA99"/>
<path d="M39.8362 73.7706C39.8362 68.0667 44.4601 63.4427 50.1641 63.4427H129.344C135.048 63.4427 139.672 68.0667 139.672 73.7706V122.459C139.672 128.163 135.048 132.787 129.344 132.787H50.1641C44.4601 132.787 39.8362 128.163 39.8362 122.459V73.7706Z" fill="white"/>
</g>
<defs>
<linearGradient id="paint0_linear_515_400" x1="0" y1="0" x2="180" y2="180" gradientUnits="userSpaceOnUse">
<stop stop-color="#F4A915"/>
<stop offset="1" stop-color="#F79800"/>
</linearGradient>
<clipPath id="clip0_515_400">
<rect width="180" height="180" fill="white"/>
</clipPath>
</defs>
</svg>
