<svg width="180" height="180" viewBox="0 0 180 180" fill="none" xmlns="http://www.w3.org/2000/svg">
<g clip-path="url(#clip0_515_364)">
<path d="M0 90C0 24.5455 24.5455 0 90 0C155.455 0 180 24.5455 180 90C180 155.455 155.455 180 90 180C24.5455 180 0 155.455 0 90Z" fill="url(#paint0_linear_515_364)"/>
<path d="M46.1563 50.2762C49.5356 45.4505 55.137 42.295 61.4754 42.295H119.016C129.338 42.295 137.705 50.6622 137.705 60.9836V95.6557L98.8524 137.213H61.4754C55.137 137.213 49.5356 134.058 46.1563 129.232C50.4924 127.734 53.6065 123.616 53.6065 118.77C53.6065 112.741 48.7847 107.838 42.7869 107.708V100.817C48.7847 100.686 53.6065 95.7832 53.6065 89.7541C53.6065 83.7249 48.7847 78.8219 42.7869 78.6912V71.8006C48.7847 71.6698 53.6065 66.7668 53.6065 60.7377C53.6065 55.8924 50.4924 51.7744 46.1563 50.2762Z" fill="white"/>
<path d="M137.705 95.6556H117.541C107.219 95.6556 98.8522 104.023 98.8522 114.344V137.213L137.705 95.6556Z" fill="#B71D1D"/>
</g>
<defs>
<linearGradient id="paint0_linear_515_364" x1="90" y1="0" x2="90" y2="180" gradientUnits="userSpaceOnUse">
<stop stop-color="#D93F2C"/>
<stop offset="1" stop-color="#DA2423"/>
</linearGradient>
<clipPath id="clip0_515_364">
<rect width="180" height="180" fill="white"/>
</clipPath>
</defs>
</svg>
