<svg width="180" height="180" viewBox="0 0 180 180" fill="none" xmlns="http://www.w3.org/2000/svg">
<g clip-path="url(#clip0_515_269)">
<path d="M0 90C0 24.5455 24.5455 0 90 0C155.455 0 180 24.5455 180 90C180 155.455 155.455 180 90 180C24.5455 180 0 155.455 0 90Z" fill="url(#paint0_linear_515_269)"/>
<path d="M79.64 38.3606C72.8255 39.7141 66.4849 42.3834 60.8941 46.0926C63.578 49.0604 64.4351 53.4391 62.7276 57.3437C60.4051 62.6544 54.2178 65.0771 48.9078 62.755C47.8385 62.2874 46.8863 61.663 46.0664 60.9206C42.3807 66.4763 39.7219 72.7724 38.3607 79.538C39.606 79.5963 40.8619 79.8791 42.0722 80.4084C47.3822 82.7305 49.8041 88.9182 47.4817 94.2289C45.8318 98.0017 42.2313 100.317 38.3806 100.509C39.7403 107.201 42.37 113.431 46.0069 118.938C48.9756 116.21 53.3872 115.329 57.3181 117.048C62.6281 119.37 65.05 125.558 62.7276 130.868C62.2427 131.977 61.5892 132.96 60.8105 133.8C66.4231 137.539 72.7948 140.229 79.6453 141.589C79.7229 140.408 80.0031 139.22 80.5046 138.073C82.8268 132.763 89.0145 130.341 94.3252 132.664C98.0181 134.279 100.315 137.763 100.59 141.521C107.337 140.135 113.613 137.458 119.148 133.76C116.428 130.791 115.552 126.386 117.269 122.459C119.591 117.148 125.779 114.726 131.089 117.048C132.157 117.515 133.109 118.139 133.928 118.881C137.55 113.382 140.168 107.164 141.521 100.487C140.395 100.396 139.264 100.119 138.17 99.6402C132.86 97.3181 130.438 91.1304 132.761 85.8197C134.365 82.1516 137.812 79.8613 141.542 79.5605C140.186 72.8084 137.538 66.5236 133.867 60.9751C130.901 63.6163 126.556 64.4506 122.678 62.755C117.368 60.4328 114.946 54.2452 117.269 48.9344C117.729 47.883 118.34 46.9447 119.066 46.134C113.553 42.4652 107.308 39.8085 100.598 38.4293C100.523 39.6203 100.242 40.8186 99.7365 41.9753C97.4144 47.2854 91.2267 49.7073 85.916 47.3849C82.1683 45.7459 79.8588 42.1823 79.64 38.3606Z" fill="white"/>
<circle cx="89.9489" cy="89.9739" r="23.1148" fill="#2D426D"/>
</g>
<defs>
<linearGradient id="paint0_linear_515_269" x1="90" y1="0" x2="90" y2="180" gradientUnits="userSpaceOnUse">
<stop stop-color="#4A596B"/>
<stop offset="1" stop-color="#304872"/>
</linearGradient>
<clipPath id="clip0_515_269">
<rect width="180" height="180" fill="white"/>
</clipPath>
</defs>
</svg>
